PathFileType	4	(X/Y/Z)	TVC_36_Cal_03_0_static_RCNL2025.trc
DataRate	CameraRate	NumFrames	NumMarkers	Units	OrigDataRate	OrigDataStartFrame	OrigNumFrames
100	100	8	27	mm	100	122	139
Frame#	Time	R_Shoulder			L_Shoulder			C7			J_Notch			R_Elbow			L_Elbow			R_Wrist			L_Wrist			R_Asis			L_Asis			R_Psis			L_Psis			Sacral			Thoracic			Sternum			R_Thigh_Lateral			R_Knee_Lateral			R_Shank_Lateral			R_Ankle_Lateral			R_Heel			R_Toe			L_Thigh_Lateral			L_Knee_Lateral			L_Shank_Lateral			L_Ankle_Lateral			L_Heel			L_Toe		
		X1	Y1	Z1	X2	Y2	Z2	X3	Y3	Z3	X4	Y4	Z4	X5	Y5	Z5	X6	Y6	Z6	X7	Y7	Z7	X8	Y8	Z8	X9	Y9	Z9	X10	Y10	Z10	X11	Y11	Z11	X12	Y12	Z12	X13	Y13	Z13	X14	Y14	Z14	X15	Y15	Z15	X16	Y16	Z16	X17	Y17	Z17	X18	Y18	Z18	X19	Y19	Z19	X20	Y20	Z20	X21	Y21	Z21	X22	Y22	Z22	X23	Y23	Z23	X24	Y24	Z24	X25	Y25	Z25	X26	Y26	Z26	X27	Y27	Z27
122	1.21000000	-250.282608	1396.549561	9.364417	-354.717957	1365.208374	-337.527344	-352.198639	1434.176025	-148.940277	-192.756012	1320.683594	-179.233109	-248.580872	1132.742798	153.887558	-314.914703	1063.383789	-434.003448	-209.304276	911.957642	119.202484	-207.993858	875.959778	-403.550674	-199.857407	902.827515	-38.211201	-288.141022	903.305786	-284.777710	-389.016998	933.581787	-58.911945	-417.601257	925.044434	-137.248871	-403.309128	929.313110	-98.080408	-387.082245	1155.927856	-115.056938	-154.482040	1168.993042	-195.851074	-246.993530	637.032715	41.817482	-323.601654	460.221863	-11.389626	-343.603912	263.323242	20.901762	-343.573822	69.892334	-57.069534	-391.956818	54.992382	-103.583580	-218.473755	40.336243	-96.253098	-335.625854	671.977722	-375.619629	-305.035736	467.404663	-330.696777	-369.586914	273.854340	-340.893829	-307.841553	69.596512	-317.362000	-314.585052	51.290733	-254.129684	-192.590652	44.816574	-377.805206
123	1.22000000	-250.720978	1396.623657	8.844761	-355.050507	1365.036011	-338.149628	-352.981476	1434.315552	-149.351761	-193.172256	1320.845093	-179.898682	-248.672699	1132.837646	153.539429	-314.928192	1063.443237	-434.336639	-209.389771	912.187286	118.903099	-208.298279	875.702179	-403.767838	-199.898880	902.978455	-38.281910	-288.333221	903.349121	-285.286102	-389.122314	933.506226	-59.271072	-417.807220	925.003296	-137.623169	-403.464767	929.254761	-98.447121	-387.530884	1156.135376	-115.380188	-154.850662	1168.952637	-196.277664	-247.352432	637.356323	41.727024	-323.719208	460.196320	-11.557988	-343.585480	263.273254	20.837244	-343.571686	69.866707	-57.059875	-391.983246	54.986992	-103.500572	-218.448792	40.345940	-96.237076	-335.622650	671.995483	-376.002502	-304.732361	467.636932	-331.105011	-369.524170	273.754730	-341.066681	-307.827484	69.586319	-317.401337	-314.570221	51.312195	-254.139160	-192.657669	44.827301	-377.861786
124	1.23000000	-251.217865	1396.723999	8.325665	-355.383942	1364.943237	-338.748413	-353.341370	1434.305786	-149.917236	-193.481506	1320.781738	-180.370056	-248.830765	1133.070435	153.147202	-315.352722	1062.968506	-434.736511	-209.660980	912.308136	118.566090	-208.515198	875.634216	-403.959518	-201.010422	902.681946	-39.242344	-288.372070	903.308899	-285.813599	-389.102173	933.369324	-59.621349	-418.019135	924.859558	-138.118225	-403.560654	929.114441	-98.869787	-387.873047	1156.223267	-115.648605	-155.244308	1169.013550	-196.711945	-247.503983	637.378113	41.607670	-323.726440	460.289917	-11.764054	-343.609406	263.437683	20.779968	-343.507996	69.821884	-57.104668	-392.016602	55.004398	-103.471069	-218.460205	40.317039	-96.263336	-335.622009	672.066711	-376.333923	-304.459564	467.684204	-331.537933	-369.501343	273.704193	-341.282959	-307.856964	69.541382	-317.368713	-314.598206	51.340355	-254.116837	-192.598389	44.759296	-377.821289
125	1.24000000	-251.668015	1396.851318	7.782536	-355.936127	1364.765991	-339.206329	-353.848022	1434.268066	-150.506607	-193.846481	1320.774658	-180.983154	-249.079773	1133.355591	152.695389	-315.879425	1062.702271	-435.148560	-209.608627	912.536316	118.104137	-208.797752	875.415924	-404.165344	-201.358200	902.783203	-39.754391	-288.575958	903.284363	-286.243042	-388.884308	933.065918	-60.207249	-418.148193	924.750549	-138.505478	-403.516251	928.908234	-99.356363	-388.068359	1156.177979	-116.005310	-155.559311	1168.965088	-197.325760	-247.680313	637.505310	41.481220	-323.795563	460.328278	-12.000793	-343.433746	263.734070	20.500662	-343.549164	69.847328	-57.073082	-392.089722	55.036732	-103.465012	-218.470779	40.315750	-96.247101	-335.645477	671.977844	-376.715607	-304.275879	467.670135	-331.988312	-369.430878	273.747009	-341.440796	-307.842896	69.493973	-317.391754	-314.586853	51.326832	-254.114365	-192.662994	44.818401	-377.862091
126	1.25000000	-251.629227	1396.919189	6.964135	-356.392731	1364.663452	-339.668365	-354.339325	1434.272095	-151.035202	-194.163803	1320.920776	-181.646301	-249.315079	1133.533325	152.202744	-316.269989	1062.347534	-435.573273	-209.605423	912.760437	117.670803	-209.131264	875.204987	-404.385269	-200.977036	903.113586	-40.049648	-288.754913	903.164185	-286.616943	-389.127502	933.145203	-60.650841	-418.340851	924.869385	-138.769684	-403.734177	929.007294	-99.710262	-388.330414	1156.297729	-116.463837	-155.835236	1169.015015	-197.914352	-247.691147	637.678223	41.160900	-323.834778	460.368896	-12.209317	-343.761505	263.561249	20.557484	-343.617126	69.842422	-57.086475	-392.099121	55.041786	-103.465683	-218.468430	40.344646	-96.179939	-335.598480	671.925354	-377.058594	-304.017822	467.662231	-332.445221	-369.317383	273.838440	-341.580536	-307.843384	69.583031	-317.355042	-314.574097	51.299995	-254.133698	-192.598404	44.761204	-377.820740
127	1.26000000	-252.235107	1396.982422	6.602179	-356.770782	1364.550537	-340.343811	-354.603210	1434.282349	-151.744217	-194.552383	1320.966187	-182.358643	-249.593201	1133.755737	151.729935	-316.344513	1062.278198	-435.995117	-209.760796	912.968811	117.201141	-208.992210	874.873352	-404.652954	-200.874512	903.142456	-40.476490	-288.971161	903.207153	-286.914246	-389.425873	933.179626	-60.993916	-419.450745	925.200317	-138.467987	-404.438309	929.189972	-99.730951	-388.845917	1156.326538	-116.834663	-156.166992	1168.938965	-198.458481	-247.789246	637.714600	40.983990	-323.852509	460.464355	-12.433129	-343.913483	263.644012	20.519257	-343.699188	69.851181	-57.152546	-392.056976	55.062508	-103.515121	-218.504745	40.335049	-96.206848	-335.575012	671.967712	-377.474030	-303.905426	467.664825	-332.827148	-369.177582	273.867523	-341.843903	-307.832764	69.602280	-317.369781	-314.614227	51.384834	-254.087982	-192.625458	44.702610	-377.832306
128	1.27000000	-252.273590	1397.166504	5.649997	-357.255768	1364.410767	-340.967255	-354.771362	1434.394043	-152.564896	-194.889877	1320.947754	-183.021561	-249.619019	1133.900513	151.027557	-316.651398	1062.178223	-436.359039	-209.867393	913.220917	116.806992	-209.504967	874.974457	-404.791290	-201.057373	903.195251	-40.868362	-289.090668	903.146301	-287.244751	-389.750366	933.146423	-61.527012	-419.257111	924.938293	-139.209518	-404.503738	929.042358	-100.368265	-389.469727	1156.318726	-117.271278	-156.452118	1168.969727	-199.004532	-247.943268	637.911072	40.797421	-323.963013	460.505676	-12.624583	-343.985535	263.672333	20.366501	-343.704468	69.872993	-57.141781	-392.128448	55.066486	-103.518974	-218.510025	40.352581	-96.213387	-335.532715	672.068115	-377.957794	-303.629211	467.555817	-333.449738	-368.975098	273.883575	-342.134796	-307.862000	69.612755	-317.444427	-314.598572	51.371220	-254.167816	-192.623810	44.715843	-377.821716
129	1.28000000	-252.436234	1397.329712	4.850334	-357.650391	1364.288574	-341.521729	-354.955475	1434.347412	-153.233795	-195.246292	1320.869629	-183.741699	-249.763107	1134.117554	150.610245	-317.005768	1061.887451	-436.750854	-209.928635	913.398773	116.422848	-209.939941	874.770325	-404.836212	-201.401199	903.157776	-41.160488	-289.331238	903.083008	-287.599152	-389.957550	933.125000	-62.024452	-419.180756	924.758789	-139.823578	-404.569153	928.941895	-100.924015	-389.755768	1156.413696	-117.745163	-156.670349	1169.024780	-199.646805	-248.077911	638.052002	40.515156	-324.035309	460.580048	-12.782780	-344.087036	263.645660	20.259529	-343.686127	69.938118	-57.153259	-392.023071	54.999805	-103.677582	-218.417786	40.430073	-96.237389	-335.449249	672.106201	-378.443359	-303.313263	467.703583	-333.983185	-368.774353	273.776062	-342.606598	-307.808960	69.565033	-317.464630	-314.647125	51.466480	-254.194107	-192.664154	44.857910	-377.841187
